<?xml version="1.0" encoding="utf-8"?>
<!-- Generator: Adobe Illustrator 17.0.0, SVG Export Plug-In . SVG Version: 6.00 Build 0)  -->
<!DOCTYPE svg PUBLIC "-//W3C//DTD SVG 1.1//EN" "http://www.w3.org/Graphics/SVG/1.1/DTD/svg11.dtd">
<svg version="1.1" id="Layer_1" xmlns="http://www.w3.org/2000/svg" xmlns:xlink="http://www.w3.org/1999/xlink" x="0px" y="0px"
	 width="425.197px" height="425.197px" viewBox="0 0 425.197 425.197" enable-background="new 0 0 425.197 425.197"
	 xml:space="preserve">
<g>
	<g>
		<circle fill="#FFFFFF" cx="217.003" cy="213.177" r="171.003"/>
		<path fill="#244434" d="M217.003,386.274c-95.446,0-173.097-77.651-173.097-173.098c0-95.446,77.651-173.097,173.097-173.097
			c95.447,0,173.098,77.651,173.098,173.097C390.101,308.623,312.449,386.274,217.003,386.274z M217.003,44.268
			c-93.136,0-168.908,75.772-168.908,168.909s75.772,168.909,168.908,168.909c93.137,0,168.909-75.772,168.909-168.909
			S310.14,44.268,217.003,44.268z"/>
	</g>
	<g>
		<g>
			<g>
				<circle fill="#244434" cx="217.003" cy="213.755" r="159.667"/>
			</g>
		</g>
		<g>
			<g>
				<path fill="#FFFFFF" d="M114.089,123.086l-5.964-5.178l-0.043,0.049l4.778,6.579l-1.188,1.402l-7.233-3.678l-0.032,0.038
					l6.079,5.041l-1.521,1.797l-8.78-7.434l2.122-2.504l6.851,3.374l0.043-0.049l-4.49-6.165l2.248-2.654l8.778,7.434
					L114.089,123.086z"/>
			</g>
			<g>
				<path fill="#FFFFFF" d="M126.494,110.713l-1.754-1.242l-1.919,1.731l1.053,1.872l-1.93,1.742l-5.631-10.415l2.425-2.188
					l9.77,6.682L126.494,110.713z M119.184,105.181l-0.047,0.045l2.551,4.284l1.459-1.316L119.184,105.181z"/>
			</g>
			<g>
				<path fill="#FFFFFF" d="M139.574,100.534l-5.079-2.964l-0.041,0.028l3.073,4.374l-2.141,1.504l-6.611-9.417l2.141-1.502
					l2.754,3.923l0.041-0.028l-0.814-5.287l2.383-1.671l0.605,6.007l6.152,3.306L139.574,100.534z"/>
			</g>
			<g>
				<path fill="#FFFFFF" d="M149.728,94.19l-5.462-10.127l4.891-2.639l1.088,2.017l-2.703,1.457l1.073,1.989l2.487-1.342
					l1.019,1.887l-2.489,1.342l1.173,2.175l2.874-1.551l1.111,2.06L149.728,94.19z"/>
			</g>
			<g>
				<path fill="#FFFFFF" d="M176.118,78.459l1.233,3.955l-2.436,0.761l-1.233-3.955l-4.968-6.163l2.684-0.836l2.735,4.133
					l0.032-0.009l-0.083-4.962l2.637-0.823L176.118,78.459z"/>
			</g>
			<g>
				<path fill="#FFFFFF" d="M195.577,72.34c0.162,0.895,0.209,1.733,0.143,2.511c-0.068,0.778-0.241,1.462-0.519,2.051
					c-0.278,0.59-0.658,1.079-1.145,1.464c-0.485,0.387-1.064,0.641-1.735,0.763s-1.301,0.088-1.893-0.1
					c-0.59-0.19-1.12-0.513-1.588-0.966c-0.468-0.455-0.872-1.034-1.209-1.737c-0.338-0.705-0.588-1.504-0.75-2.4
					s-0.214-1.724-0.15-2.492c0.064-0.765,0.235-1.44,0.515-2.026c0.278-0.586,0.662-1.068,1.147-1.449
					c0.487-0.38,1.073-0.633,1.754-0.756c0.671-0.122,1.301-0.092,1.891,0.092c0.59,0.186,1.118,0.502,1.586,0.951
					c0.468,0.449,0.868,1.019,1.205,1.712C195.164,70.651,195.412,71.446,195.577,72.34z M192.955,72.819
					c-0.09-0.489-0.209-0.938-0.361-1.346c-0.152-0.408-0.327-0.752-0.528-1.034c-0.201-0.284-0.423-0.494-0.669-0.63
					c-0.246-0.137-0.511-0.18-0.799-0.128c-0.286,0.053-0.524,0.188-0.712,0.404c-0.186,0.216-0.323,0.491-0.41,0.825
					c-0.088,0.336-0.128,0.72-0.12,1.154c0.006,0.434,0.056,0.895,0.145,1.387c0.09,0.489,0.207,0.942,0.355,1.355
					c0.145,0.415,0.321,0.763,0.519,1.045c0.201,0.284,0.427,0.496,0.68,0.637c0.25,0.141,0.519,0.186,0.808,0.132
					c0.288-0.051,0.521-0.188,0.701-0.408c0.182-0.22,0.314-0.498,0.402-0.833s0.13-0.722,0.128-1.162
					C193.089,73.773,193.044,73.31,192.955,72.819z"/>
			</g>
			<g>
				<path fill="#FFFFFF" d="M213.157,74.134c-0.118,0.558-0.321,1.051-0.613,1.481c-0.293,0.427-0.68,0.774-1.165,1.036
					c-0.485,0.265-1.079,0.417-1.782,0.453c-0.703,0.038-1.306-0.049-1.806-0.263c-0.498-0.212-0.912-0.515-1.244-0.91
					c-0.329-0.393-0.577-0.863-0.742-1.408c-0.165-0.545-0.263-1.135-0.297-1.774l-0.385-7.238l2.611-0.139l0.374,7.011
					c0.017,0.325,0.051,0.626,0.105,0.906c0.051,0.278,0.132,0.515,0.241,0.709c0.107,0.197,0.246,0.348,0.415,0.459
					c0.169,0.109,0.383,0.158,0.641,0.145c0.261-0.015,0.468-0.085,0.624-0.214c0.156-0.126,0.278-0.293,0.363-0.498
					c0.088-0.205,0.143-0.451,0.165-0.733c0.023-0.284,0.028-0.588,0.009-0.912l-0.372-7.011l2.596-0.137l0.385,7.238
					C213.315,72.976,213.274,73.574,213.157,74.134z"/>
			</g>
			<g>
				<path fill="#FFFFFF" d="M227.939,77.019l-1.222-4.675l-0.759-0.053l-0.314,4.573l-2.496-0.171l0.786-11.479l3.671,0.252
					c1.111,0.077,1.955,0.425,2.53,1.045c0.575,0.62,0.823,1.504,0.744,2.65c-0.028,0.421-0.103,0.797-0.222,1.124
					c-0.12,0.329-0.267,0.607-0.438,0.833c-0.173,0.227-0.361,0.41-0.566,0.547c-0.205,0.139-0.4,0.233-0.588,0.286l1.605,5.257
					L227.939,77.019z M228.324,69.13c0.021-0.291-0.002-0.532-0.073-0.72c-0.068-0.19-0.162-0.344-0.284-0.459
					c-0.124-0.118-0.261-0.201-0.415-0.25c-0.156-0.047-0.308-0.077-0.459-0.088l-0.81-0.056l-0.199,2.902l0.761,0.053
					c0.368,0.024,0.697-0.07,0.989-0.284C228.125,70.017,228.29,69.649,228.324,69.13z"/>
			</g>
			<g>
				<path fill="#FFFFFF" d="M256.332,82.302c-0.549,0.028-1.16-0.053-1.84-0.244c-0.699-0.197-1.282-0.511-1.752-0.945
					c-0.468-0.436-0.823-0.959-1.062-1.571c-0.239-0.613-0.361-1.303-0.368-2.068c-0.004-0.767,0.113-1.583,0.355-2.449
					c0.244-0.865,0.566-1.628,0.968-2.286c0.404-0.658,0.865-1.192,1.385-1.603c0.519-0.412,1.083-0.686,1.688-0.821
					c0.607-0.135,1.233-0.111,1.878,0.07c0.752,0.209,1.344,0.513,1.78,0.91c0.434,0.397,0.744,0.829,0.927,1.297l-1.872,1.451
					c-0.233-0.628-0.673-1.032-1.323-1.214c-0.346-0.096-0.671-0.09-0.972,0.023c-0.303,0.113-0.581,0.301-0.838,0.568
					c-0.254,0.265-0.479,0.596-0.675,0.992c-0.194,0.395-0.357,0.827-0.489,1.297c-0.13,0.47-0.218,0.923-0.261,1.361
					s-0.028,0.836,0.047,1.194c0.075,0.359,0.212,0.667,0.404,0.923c0.194,0.256,0.466,0.434,0.812,0.53
					c0.376,0.105,0.692,0.109,0.947,0.011l0.577-2.064l-1.19-0.333l0.609-2.175l3.381,0.944l-1.65,5.9
					C257.368,82.175,256.879,82.274,256.332,82.302z"/>
			</g>
			<g>
				<path fill="#FFFFFF" d="M271.365,87.789l0.372-2.118l-2.385-0.994l-1.242,1.752l-2.4-1.002l7.013-9.539l3.013,1.259
					l-1.87,11.687L271.365,87.789z M273.243,78.819l-0.06-0.026l-2.784,4.137l1.814,0.759L273.243,78.819z"/>
			</g>
			<g>
				<path fill="#FFFFFF" d="M285.938,95.157l0.927-4.744l-0.66-0.376l-2.267,3.983l-2.175-1.237l5.69-10.001l3.199,1.821
					c0.968,0.551,1.575,1.231,1.825,2.039c0.248,0.808,0.09,1.712-0.479,2.71c-0.209,0.368-0.438,0.673-0.69,0.917
					c-0.25,0.244-0.502,0.432-0.756,0.56c-0.254,0.13-0.502,0.214-0.746,0.25c-0.244,0.034-0.462,0.036-0.654,0.002l-0.836,5.432
					L285.938,95.157z M289.708,88.216c0.145-0.254,0.229-0.481,0.248-0.682c0.021-0.199,0.002-0.378-0.058-0.538
					c-0.06-0.158-0.147-0.293-0.265-0.402c-0.12-0.111-0.244-0.205-0.376-0.28l-0.705-0.402l-1.438,2.528l0.662,0.378
					c0.321,0.182,0.658,0.241,1.013,0.175C289.146,88.928,289.451,88.669,289.708,88.216z"/>
			</g>
			<g>
				<path fill="#FFFFFF" d="M305.754,101.721c-0.517,0.694-1.064,1.267-1.637,1.718s-1.165,0.759-1.776,0.925
					c-0.611,0.165-1.237,0.177-1.883,0.034c-0.643-0.143-1.295-0.459-1.955-0.953l-2.59-1.934l6.883-9.218l2.592,1.934
					c0.658,0.494,1.15,1.028,1.468,1.605c0.321,0.577,0.485,1.184,0.496,1.821c0.013,0.637-0.12,1.295-0.391,1.979
					C306.687,100.313,306.286,101.01,305.754,101.721z M303.657,100.155c0.694-0.927,1.06-1.748,1.096-2.457
					s-0.199-1.252-0.701-1.628l-0.509-0.378l-4.16,5.573l0.509,0.378c0.502,0.376,1.09,0.447,1.759,0.209
					C302.322,101.614,302.991,101.05,303.657,100.155z"/>
			</g>
			<g>
				<path fill="#FFFFFF" d="M309.455,112.435l7.921-8.344l4.03,3.825l-1.577,1.662l-2.227-2.113l-1.556,1.637l2.051,1.947
					l-1.477,1.556l-2.051-1.947l-1.701,1.793l2.37,2.248l-1.611,1.697L309.455,112.435z"/>
			</g>
			<g>
				<path fill="#FFFFFF" d="M323.214,127.007l3.684-6.524l-0.03-0.038l-5.346,4.524l-1.485-1.786l8.851-7.351l1.827,2.201
					l-3.772,6.573l0.032,0.038l5.432-4.573l1.432,1.724l-8.851,7.349L323.214,127.007z"/>
			</g>
		</g>
		<g>
			<g>
				<g>
					<path fill="#FFFFFF" d="M341.7,238.968h-57.811c-0.906,0-1.641-0.735-1.641-1.641s0.735-1.641,1.641-1.641H341.7
						c0.906,0,1.641,0.735,1.641,1.641S342.606,238.968,341.7,238.968z"/>
				</g>
			</g>
			<g>
				<g>
					<path fill="#FFFFFF" d="M318.887,247.933h-49.315c-0.906,0-1.641-0.735-1.641-1.641s0.735-1.641,1.641-1.641h49.315
						c0.906,0,1.641,0.735,1.641,1.641S319.793,247.933,318.887,247.933z"/>
				</g>
			</g>
		</g>
		<g>
			<g>
				<g>
					<path fill="#FFFFFF" d="M150.117,238.968H92.306c-0.906,0-1.641-0.735-1.641-1.641s0.735-1.641,1.641-1.641h57.811
						c0.906,0,1.641,0.735,1.641,1.641S151.023,238.968,150.117,238.968z"/>
				</g>
			</g>
			<g>
				<g>
					<path fill="#FFFFFF" d="M164.434,247.933h-49.315c-0.906,0-1.641-0.735-1.641-1.641s0.735-1.641,1.641-1.641h49.315
						c0.906,0,1.641,0.735,1.641,1.641S165.34,247.933,164.434,247.933z"/>
				</g>
			</g>
		</g>
		<g>
			<g>
				<path fill="#FFFFFF" d="M83.853,213.448c0,0.936-0.143,1.744-0.43,2.427c-0.284,0.68-0.667,1.244-1.141,1.688
					c-0.477,0.444-1.015,0.774-1.62,0.987c-0.603,0.214-1.212,0.321-1.831,0.321H77.19v6.141h-3.735v-16.847h5.233
					c0.603,0,1.209,0.085,1.821,0.261s1.167,0.466,1.667,0.868c0.498,0.406,0.904,0.949,1.212,1.633
					C83.697,211.606,83.853,212.448,83.853,213.448z M80.282,213.52c0-0.765-0.182-1.312-0.547-1.645s-0.808-0.496-1.331-0.496
					H77.19v4.402h1.214c0.524,0,0.966-0.197,1.331-0.586C80.1,214.807,80.282,214.247,80.282,213.52z"/>
			</g>
			<g>
				<path fill="#FFFFFF" d="M97.663,225.013l-2.252-6.71h-1.115v6.71h-3.663v-16.848h5.387c1.63,0,2.898,0.423,3.799,1.274
					c0.902,0.846,1.353,2.111,1.353,3.795c0,0.62-0.071,1.175-0.212,1.667c-0.143,0.491-0.329,0.91-0.558,1.261
					c-0.231,0.346-0.487,0.633-0.771,0.855c-0.284,0.222-0.562,0.38-0.829,0.474l2.87,7.522H97.663z M97.437,213.448
					c0-0.427-0.06-0.778-0.177-1.047c-0.12-0.269-0.274-0.483-0.464-0.641c-0.192-0.158-0.402-0.269-0.633-0.325
					c-0.229-0.056-0.455-0.081-0.677-0.081h-1.19v4.261h1.12c0.538,0,1.011-0.171,1.415-0.513
					C97.236,214.76,97.437,214.209,97.437,213.448z"/>
			</g>
			<g>
				<path fill="#FFFFFF" d="M108.264,225.013v-16.848h3.829v16.847L108.264,225.013L108.264,225.013z"/>
			</g>
			<g>
				<path fill="#FFFFFF" d="M127.227,225.013h-4.829l-4.069-16.847h4.306l2.284,12.325h0.049l2.259-12.325h4.141L127.227,225.013z"
					/>
			</g>
			<g>
				<path fill="#FFFFFF" d="M144.787,225.013l-0.69-3.069h-3.782l-0.69,3.069h-3.808l4.092-16.847h4.782l4.071,16.847H144.787z
					 M142.266,211.828h-0.096l-1.427,7.163h2.878L142.266,211.828z"/>
			</g>
			<g>
				<path fill="#FFFFFF" d="M159.874,211.401v13.612h-3.737v-13.612h-3.092v-3.235h9.921v3.235H159.874z"/>
			</g>
			<g>
				<path fill="#FFFFFF" d="M169.203,225.013v-16.848h8.137v3.355h-4.498v3.308h4.141v3.141h-4.141v3.616h4.782v3.428
					L169.203,225.013L169.203,225.013z"/>
			</g>
		</g>
		<g>
			<g>
				<path fill="#FFFFFF" d="M269.523,225.286c-0.793,0.265-1.727,0.397-2.801,0.397c-1.107,0-2.094-0.222-2.962-0.671
					c-0.868-0.444-1.603-1.068-2.207-1.872c-0.603-0.799-1.064-1.761-1.387-2.885s-0.485-2.372-0.485-3.744
					c0-1.372,0.162-2.624,0.485-3.757s0.78-2.107,1.376-2.927c0.594-0.816,1.308-1.449,2.143-1.893
					c0.836-0.449,1.765-0.671,2.789-0.671c1.19,0,2.186,0.201,2.987,0.607s1.434,0.915,1.898,1.526l-2.158,2.902
					c-0.596-0.829-1.41-1.239-2.44-1.239c-0.547,0-1.019,0.141-1.419,0.432c-0.397,0.291-0.731,0.684-0.996,1.18
					s-0.462,1.073-0.586,1.735c-0.124,0.658-0.186,1.363-0.186,2.107s0.058,1.445,0.173,2.107c0.118,0.662,0.303,1.239,0.562,1.735
					c0.259,0.496,0.581,0.893,0.972,1.188c0.391,0.299,0.859,0.449,1.408,0.449c0.598,0,1.064-0.124,1.395-0.372v-3.274h-1.883
					v-3.445h5.355v9.347C270.995,224.675,270.318,225.021,269.523,225.286z"/>
			</g>
			<g>
				<path fill="#FFFFFF" d="M287.026,225.286l-0.72-3.197h-3.94l-0.72,3.197h-3.966l4.263-17.552h4.983l4.24,17.552H287.026z
					 M284.398,211.555H284.3l-1.487,7.462h2.998L284.398,211.555z"/>
			</g>
			<g>
				<path fill="#FFFFFF" d="M304.986,225.286l-2.346-6.992h-1.16v6.992h-3.819v-17.552h5.614c1.699,0,3.019,0.444,3.96,1.329
					c0.938,0.885,1.408,2.201,1.408,3.953c0,0.645-0.073,1.222-0.222,1.735c-0.147,0.513-0.342,0.949-0.579,1.312
					c-0.239,0.363-0.506,0.662-0.803,0.893c-0.297,0.231-0.586,0.397-0.865,0.496l2.992,7.834L304.986,225.286L304.986,225.286z
					 M304.751,213.238c0-0.444-0.062-0.808-0.186-1.09c-0.124-0.282-0.284-0.504-0.483-0.671c-0.199-0.162-0.419-0.278-0.658-0.333
					c-0.239-0.06-0.474-0.085-0.705-0.085h-1.239v4.436h1.165c0.562,0,1.053-0.179,1.474-0.534S304.751,214.033,304.751,213.238z"/>
			</g>
			<g>
				<path fill="#FFFFFF" d="M328.253,216.559c0,1.325-0.143,2.521-0.434,3.594c-0.288,1.077-0.731,1.996-1.325,2.752
					c-0.596,0.761-1.353,1.35-2.269,1.761c-0.917,0.415-2.004,0.62-3.259,0.62h-4.934v-17.552h4.934c1.254,0,2.342,0.209,3.259,0.62
					c0.917,0.415,1.673,1.004,2.269,1.774c0.594,0.769,1.036,1.697,1.325,2.778C328.11,213.986,328.253,215.204,328.253,216.559z
					 M324.263,216.559c0-1.765-0.303-3.103-0.906-4c-0.603-0.902-1.385-1.355-2.342-1.355h-0.968v10.612h0.968
					c0.957,0,1.739-0.449,2.342-1.35S324.263,218.264,324.263,216.559z"/>
			</g>
			<g>
				<path fill="#FFFFFF" d="M335.616,225.286v-17.552h8.479v3.496h-4.686v3.449h4.314v3.269h-4.314v3.769h4.983v3.569
					L335.616,225.286L335.616,225.286z"/>
			</g>
			<g>
				<path fill="#FFFFFF" d="M359.267,225.286l-4.066-10.684h-0.073l0.098,10.684h-3.545v-17.552h4.363l4.041,10.834h0.075
					l-0.075-10.834h3.421v17.552H359.267z"/>
			</g>
		</g>
		<g>
			<g>
				<path fill="none" stroke="#FFFFFF" stroke-width="1.5" stroke-linecap="round" stroke-miterlimit="10" d="M93.902,244.963"/>
			</g>
		</g>
		<g>
			<g>
				<path fill="none" stroke="#FFFFFF" stroke-width="1.5" stroke-linecap="round" stroke-miterlimit="10" d="M95.634,251.569"/>
			</g>
		</g>
		<g>
			<g>
				<path fill="#FFFFFF" d="M212.018,344.625c-0.03,0-0.058,0-0.088-0.002c-53.311-2.066-100.36-37.506-117.073-88.184
					c-0.38-1.147,0.244-2.385,1.391-2.763c1.156-0.393,2.383,0.246,2.763,1.391c16.146,48.954,61.593,83.186,113.09,85.184
					c1.207,0.047,2.148,1.064,2.101,2.271C214.157,343.701,213.187,344.625,212.018,344.625z"/>
			</g>
		</g>
		<g>
			<g>
				<path fill="#FFFFFF" d="M221.986,344.625c-1.169,0-2.139-0.925-2.184-2.103c-0.047-1.207,0.893-2.224,2.101-2.271
					c51.499-1.998,96.945-36.231,113.094-85.184c0.378-1.145,1.605-1.784,2.763-1.391c1.147,0.378,1.771,1.615,1.391,2.763
					c-16.715,50.678-63.766,86.118-117.077,88.184C222.044,344.625,222.016,344.625,221.986,344.625z"/>
			</g>
		</g>
		<g>
			<g>
				<path fill="#FFFFFF" d="M337.074,178.699c-0.919,0-1.774-0.583-2.077-1.502c-16.824-51.011-64.241-85.285-117.994-85.285
					c-53.751,0-101.168,34.271-117.992,85.278c-0.38,1.145-1.607,1.78-2.763,1.391c-1.147-0.378-1.771-1.615-1.391-2.763
					c17.413-52.804,66.502-88.283,122.146-88.283c55.646,0,104.734,35.481,122.148,88.289c0.38,1.147-0.244,2.385-1.391,2.763
					C337.531,178.665,337.3,178.699,337.074,178.699z"/>
			</g>
		</g>
		<g>
			<g>
				<g>
					<path fill="#FFFFFF" d="M258.653,199.795c-0.111,0-0.222-0.011-0.335-0.034c-0.887-0.184-1.457-1.053-1.274-1.94
						c1.695-8.174,8.994-14.108,17.356-14.108c5.601,0,10.755,2.564,14.138,7.032c0.547,0.724,0.406,1.752-0.316,2.299
						c-0.727,0.547-1.754,0.402-2.299-0.316c-2.759-3.643-6.958-5.733-11.522-5.733c-6.814,0-12.761,4.834-14.142,11.492
						C260.097,199.263,259.413,199.795,258.653,199.795z"/>
				</g>
			</g>
			<g>
				<g>
					<path fill="#FFFFFF" d="M278.143,187.434c-0.308,0-0.622-0.088-0.9-0.269c-0.756-0.498-0.968-1.515-0.47-2.274
						c4.494-6.838,12.058-10.922,20.232-10.922c8.022,0,15.507,3.966,20.022,10.607c0.511,0.75,0.316,1.771-0.434,2.28
						c-0.752,0.511-1.771,0.312-2.28-0.434c-3.904-5.744-10.374-9.171-17.309-9.171c-7.064,0-13.603,3.53-17.488,9.443
						C279.201,187.173,278.677,187.434,278.143,187.434z"/>
				</g>
			</g>
			<g>
				<g>
					<path fill="#FFFFFF" d="M357.872,199.793h-24.271c-0.778,0-1.449-0.547-1.607-1.308c-1.383-6.659-7.329-11.49-14.142-11.49
						c-0.66,0-1.318,0.045-1.96,0.13c-0.893,0.137-1.724-0.509-1.846-1.406s0.509-1.724,1.406-1.846
						c0.786-0.107,1.594-0.16,2.4-0.16c7.906,0,14.866,5.306,17.031,12.798h22.988c0.906,0,1.641,0.735,1.641,1.641
						C359.513,199.058,358.778,199.793,357.872,199.793z"/>
				</g>
			</g>
		</g>
		<g>
			<g>
				<g>
					<path fill="#FFFFFF" d="M175.353,199.795c-0.761,0-1.445-0.532-1.605-1.308c-1.383-6.658-7.329-11.492-14.142-11.492
						c-4.564,0-8.763,2.09-11.524,5.733c-0.545,0.718-1.573,0.863-2.299,0.316c-0.722-0.547-0.863-1.577-0.316-2.299
						c3.385-4.468,8.539-7.032,14.14-7.032c8.359,0,15.659,5.932,17.356,14.108c0.184,0.887-0.387,1.757-1.274,1.94
						C175.576,199.785,175.464,199.795,175.353,199.795z"/>
				</g>
			</g>
			<g>
				<g>
					<path fill="#FFFFFF" d="M155.861,187.434c-0.534,0-1.058-0.261-1.374-0.739c-3.885-5.913-10.422-9.443-17.486-9.443
						c-6.934,0-13.405,3.428-17.309,9.171c-0.509,0.746-1.53,0.944-2.28,0.434c-0.75-0.509-0.944-1.53-0.434-2.28
						c4.515-6.641,12.001-10.607,20.022-10.607c8.174,0,15.736,4.084,20.23,10.922c0.498,0.759,0.286,1.776-0.47,2.274
						C156.483,187.346,156.168,187.434,155.861,187.434z"/>
				</g>
			</g>
			<g>
				<g>
					<path fill="#FFFFFF" d="M100.405,199.793H76.132c-0.906,0-1.641-0.735-1.641-1.641s0.735-1.641,1.641-1.641h22.991
						c2.165-7.492,9.124-12.798,17.031-12.798c0.803,0,1.611,0.053,2.4,0.16c0.897,0.122,1.528,0.947,1.406,1.846
						c-0.122,0.895-0.936,1.539-1.846,1.406c-0.641-0.085-1.295-0.13-1.96-0.13c-6.812,0-12.759,4.831-14.142,11.49
						C101.854,199.246,101.183,199.793,100.405,199.793z"/>
				</g>
			</g>
		</g>
		<g>
			<g>
				<path fill="#FFFFFF" d="M221.379,344.094c-0.906,0-1.641-0.735-1.641-1.641V311.49c0-0.846,0.643-1.554,1.487-1.635
					c6.827-0.645,12.208-2.893,15.988-6.686c5.455-5.475,5.596-11.973,5.594-12.697v-75.944c0-1.509-1.227-2.735-2.735-2.735
					s-2.735,1.227-2.735,2.735v75.955c0,0.049-0.109,4.921-3.998,8.823c-2.714,2.725-6.671,4.415-11.766,5.026
					c-0.459,0.045-0.932-0.092-1.284-0.404c-0.35-0.31-0.551-0.756-0.551-1.227V193c0-1.509-1.227-2.735-2.735-2.735
					s-2.735,1.227-2.735,2.735v96.084c0,0.47-0.201,0.919-0.553,1.229c-0.353,0.312-0.827,0.462-1.289,0.4
					c-15.076-1.859-15.732-12.588-15.757-13.806v-48.785c0-1.509-1.227-2.735-2.735-2.735s-2.735,1.227-2.735,2.735v48.736
					c-0.002,0.729,0.139,7.244,5.594,12.719c3.78,3.793,9.161,6.041,15.988,6.686c0.844,0.081,1.487,0.789,1.487,1.635v44.556
					c0,0.906-0.735,1.641-1.641,1.641s-1.641-0.735-1.641-1.641v-43.088c-6.917-0.9-12.469-3.41-16.518-7.473
					c-6.389-6.411-6.554-14.176-6.552-15.039v-48.731c0-3.319,2.699-6.017,6.017-6.017c3.319,0,6.017,2.699,6.017,6.017v48.751
					c0.017,0.846,0.489,8.227,11.035,10.291v-94.163c0-3.319,2.699-6.017,6.017-6.017c3.319,0,6.017,2.699,6.017,6.017V300.79
					c3.449-0.656,6.133-1.932,7.994-3.799c2.868-2.876,3.041-6.52,3.041-6.556v-75.906c0-3.319,2.699-6.017,6.017-6.017
					c3.319,0,6.017,2.699,6.017,6.017v75.94c0.002,0.859-0.162,8.607-6.552,15.018c-4.049,4.062-9.601,6.573-16.518,7.473v29.495
					C223.02,343.359,222.285,344.094,221.379,344.094z"/>
			</g>
		</g>
		<g>
			<g>
				<g>
					<path fill="#FFFFFF" d="M212.629,198.837c-0.068,0-0.139-0.004-0.209-0.013c-17.903-2.28-31.403-17.629-31.403-35.705
						c0-19.847,16.146-35.993,35.993-35.993s35.993,16.146,35.993,35.993c0,18.082-13.507,33.431-31.416,35.705
						c-0.904,0.12-1.722-0.521-1.836-1.421s0.524-1.722,1.421-1.836c16.277-2.064,28.549-16.014,28.549-32.448
						c0-18.037-14.674-32.711-32.711-32.711s-32.711,14.674-32.711,32.711c0,16.428,12.268,30.378,28.536,32.448
						c0.9,0.115,1.534,0.936,1.421,1.836C214.148,198.232,213.443,198.837,212.629,198.837z"/>
				</g>
			</g>
			<g>
				<g>
					<path fill="#FFFFFF" d="M217.009,120.73c-0.906,0-1.641-0.735-1.641-1.641V97.928c0-0.906,0.735-1.641,1.641-1.641
						s1.641,0.735,1.641,1.641v21.161C218.651,119.996,217.915,120.73,217.009,120.73z"/>
				</g>
			</g>
			<g>
				<g>
					<path fill="#FFFFFF" d="M200.158,124.082c-0.643,0-1.254-0.38-1.517-1.013l-5.77-13.93c-0.346-0.838,0.051-1.797,0.889-2.145
						c0.836-0.338,1.797,0.051,2.145,0.889l5.77,13.93c0.346,0.838-0.051,1.797-0.889,2.145
						C200.581,124.04,200.367,124.082,200.158,124.082z"/>
				</g>
			</g>
			<g>
				<g>
					<path fill="#FFFFFF" d="M185.873,133.626c-0.421,0-0.84-0.16-1.16-0.481l-18.383-18.384c-0.641-0.641-0.641-1.68,0-2.321
						c0.641-0.641,1.68-0.641,2.321,0l18.383,18.383c0.641,0.641,0.641,1.68,0,2.321
						C186.713,133.466,186.294,133.626,185.873,133.626z"/>
				</g>
			</g>
			<g>
				<g>
					<path fill="#FFFFFF" d="M172.977,164.76h-49.308c-0.906,0-1.641-0.735-1.641-1.641s0.735-1.641,1.641-1.641h49.308
						c0.906,0,1.641,0.735,1.641,1.641S173.883,164.76,172.977,164.76z"/>
				</g>
			</g>
			<g>
				<g>
					<path fill="#FFFFFF" d="M176.33,147.911c-0.209,0-0.423-0.041-0.628-0.124l-25.45-10.541c-0.838-0.348-1.235-1.308-0.889-2.145
						c0.348-0.838,1.31-1.227,2.145-0.889l25.45,10.541c0.838,0.348,1.235,1.308,0.889,2.145
						C177.584,147.531,176.973,147.911,176.33,147.911z"/>
				</g>
			</g>
			<g>
				<g>
					<path fill="#FFFFFF" d="M233.859,124.082c-0.209,0-0.423-0.041-0.628-0.124c-0.838-0.348-1.235-1.308-0.889-2.145l5.772-13.93
						c0.348-0.838,1.314-1.227,2.145-0.889c0.838,0.348,1.235,1.308,0.889,2.145l-5.772,13.93
						C235.113,123.7,234.502,124.082,233.859,124.082z"/>
				</g>
			</g>
			<g>
				<g>
					<path fill="#FFFFFF" d="M248.144,133.626c-0.421,0-0.84-0.16-1.16-0.481c-0.641-0.641-0.641-1.68,0-2.321l18.383-18.383
						c0.641-0.641,1.68-0.641,2.321,0c0.641,0.641,0.641,1.68,0,2.321l-18.383,18.384
						C248.983,133.466,248.565,133.626,248.144,133.626z"/>
				</g>
			</g>
			<g>
				<g>
					<path fill="#FFFFFF" d="M310.348,164.76h-49.306c-0.906,0-1.641-0.735-1.641-1.641s0.735-1.641,1.641-1.641h49.306
						c0.906,0,1.641,0.735,1.641,1.641S311.254,164.76,310.348,164.76z"/>
				</g>
			</g>
			<g>
				<g>
					<path fill="#FFFFFF" d="M257.689,147.911c-0.643,0-1.254-0.38-1.517-1.013c-0.346-0.838,0.051-1.797,0.889-2.145l25.448-10.541
						c0.836-0.338,1.797,0.051,2.145,0.889c0.346,0.838-0.051,1.797-0.889,2.145l-25.448,10.541
						C258.112,147.871,257.898,147.911,257.689,147.911z"/>
				</g>
			</g>
		</g>
	</g>
</g>
</svg>
